<svg xmlns="http://www.w3.org/2000/svg" width="873" height="273"><path fill="#fffbf0" d="M253 22c5.83 12.926 5.187 26.478.814 39.863-2.09 5.485-4.998 10.592-7.888 15.688-2.8 5.016-3.011 6.897-1.488 12.324 2.485 8.893 2.485 8.893.644 13.345l-1.27 2.206-1.367 2.412-1.445 2.475-1.445 2.533A780 780 0 0 1 236 119a341 341 0 0 1-13.398-11.973c-3.614-2.815-7.56-4.89-11.602-7.027a2603 2603 0 0 0-6.244 14.24q-1.055 2.415-2.121 4.826C194.393 137.705 190.137 153.112 197 173c1.645 3.66 3.593 6.796 6 10l1.707 2.324C212.97 195.571 225.171 200.89 237 206c17.78-18.18 26.44-38.41 26.366-63.808-.217-12.988-3.196-23.925-9.292-35.422-1.247-3.216-.84-4.488-.074-7.77-.559-2.684-.559-2.684-1.437-5.437-2.722-9.342-2.722-9.342-.063-14.438L254 77c4.208 1.525 6.278 4.589 8.75 8.125l1.317 1.882c11.851 17.377 18.157 36.794 18.058 57.868l.02 2.407c.006 4.21-.336 7.813-1.395 11.905-.455 3.59.473 5.397 2.54 8.22 2.073 2.612 4.245 5.132 6.425 7.655C301.523 188.843 309.377 205.734 308 224c-1.52 5.263-5.384 9.175-10 12-12.475 6.288-27.251 2.763-40-1a177 177 0 0 1-10.786-4.069c-3.549-1.45-6.383-2.525-10.214-1.931-2.656 1.355-2.656 1.355-5.5 3.188-22.615 13.701-50.138 15.99-75.5 9.812-15.966-4.146-29.819-11.887-42-23l-2.355-2.11C97.648 203.69 88.215 185.654 84 167l-.68-2.941c-1.718-8.65-1.507-17.284-1.32-26.059 3.763 1.663 6.886 4.069 10.125 6.563C97.76 148.88 97.76 148.88 100 150c.521 2.59.94 5.138 1.313 7.75 3.534 22.02 14.823 38.991 31.687 53.25 3.055-3.706 5.796-7.557 8.438-11.562l1.3-1.961c4.633-7.007 9.203-14.054 13.774-21.102 3.652-5.632 7.32-11.254 10.988-16.875a13242 13242 0 0 0 15.568-23.915 6415 6415 0 0 1 8.9-13.663l2.034-3.113q1.942-2.974 3.887-5.946A789 789 0 0 0 208 97c-8.887-2.834-17.913-4.923-27-7l8-16 .913-2.178C191 70 191 70 194.343 68.965l2.014-.484c6.023-1.528 10.312-3.267 13.608-8.743 1.726-3.304 3.26-6.69 4.805-10.082C217.473 43.732 221.267 39.422 226 35l1.988-1.973C234.956 26.45 243.305 21.785 253 22m-25.875 30.125C224.757 55.329 224 57.028 224 61c1.432 3.85 2.785 4.877 6.375 6.938C234 69 234 69 236.688 68.5c2.89-1.875 4.505-3.556 6.312-6.5.66-3.962.366-5.452-1.875-8.812-2.704-2.784-3.548-3.123-7.437-3.563C230 50 230 50 227.125 52.125M273 185l-1.145 2.57c-3.967 8.456-8.652 15.47-14.597 22.664C255 213 255 213 254 215c11.524 3.972 22.669 7.806 35 6 2-2 2-2 2.063-5.75-1.491-10.78-8.959-22.247-16.063-30.25zm-101 4q-3 6.75-5.981 13.507-1.016 2.299-2.038 4.595-1.466 3.3-2.918 6.605l-.928 2.074c-1.277 2.916-2.135 5-2.135 8.219 18.893 6.02 38.798 4.884 57-3 2.414-1.66 2.414-1.66 4-3-5.18-3.28-10.416-6.426-15.716-9.505-9.434-5.49-18.558-11.232-27.46-17.546C173 189 173 189 172 189"/><path fill="#fffbf0" d="m123.71 50.5 2.128.728a102 102 0 0 1 4.463 1.718c3.953 1.542 5.945 2.246 10.156 1.175l3.356-1.684C162.097 44.125 184.468 42.064 204 47l2 1c-1.62 7.894-1.62 7.894-4.77 10.418-2.045 1.02-4.071 1.834-6.23 2.582l-2.937 1.25c-3.18.779-6.01.767-9.266.707-23.112.355-43.686 9.294-60.234 25.418C117.14 94.091 111.84 100.578 109 108c3.593 11.839 20.764 24.21 30 32l7.375 6.375 1.879 1.627c4.518 3.884 4.518 3.884 6.746 4.998-.532 4.138-2.78 6.27-5.562 9.25l-2.504 2.703L145 167c-3.084-.587-4.868-1.449-7.215-3.52-.597-.52-1.193-1.042-1.808-1.579l-1.915-1.714-2.016-1.78A1090 1090 0 0 1 126 153l-1.695-1.515C111.011 139.569 97.885 127.186 87 113l-2.441-2.996c-11.085-13.712-21.596-29.782-20.942-48.02.762-5.937 2.976-9.477 7.008-13.797 15.31-11.357 37.072-3.266 53.086 2.313M81 63c.468 6.163 1.879 10.62 4.75 16.063l1.016 2.025C89.137 85.71 91.9 89.833 95 94c2.963-2.806 5.267-5.696 7.563-9.062C107.08 78.602 112.38 73.34 118 68c-3.145-2.097-5.768-2.977-9.375-4.062l-3.398-1.036c-5.071-1.418-9.573-2.06-14.852-2.09l-3.414-.042C84 61 84 61 81 63m712 66c2.375 2.188 2.375 2.188 4 4l1-6h13c.068 7.441.123 14.883.155 22.324q.022 5.184.071 10.368c.04 3.979.054 7.958.067 11.937.015 1.232.03 2.465.047 3.735.001 7.217-.249 12.667-4.813 18.527-6.99 5.977-14.769 7.672-23.851 7.402-5.932-.65-11.923-2.627-16.676-6.293-4-5.19-4-5.19-4-9q2.123-.507 4.25-1l2.39-.562C771 184 771 184 775 184l2.063 2.5c3.872 3.296 6.388 2.987 11.316 2.871 2.666-.377 4.374-.902 6.621-2.371 2.245-4.715 2.176-8.895 2-14l-2.875 2.438c-4.784 4.055-8.574 3.898-14.785 3.843-5.844-.492-9.552-2.493-13.653-6.594-5.536-8.817-6.85-18.045-5-28.187 1.804-7.264 5.405-12.392 11.567-16.59 6.605-3.443 14.607-2.907 20.746 1.09m-15 11c-3.694 4.78-4.59 9.657-4.324 15.602.605 4.476 1.935 7.91 5.074 11.273 4.364 2.182 7.859 2.58 12.5 1.063 3.9-2.748 5.138-5.419 6.254-10.012 1.142-6.887-.25-12.707-4.254-18.426-5.284-3.523-10.227-3.184-15.25.5m-390.965-24.395c7.29 6.763 10.598 15.281 11.188 25.106.368 11.998-1.268 21.894-9.223 31.289-6.768 6.54-14.065 9.096-23.375 9.438-9.177-.257-17.108-2.847-23.836-9.243-8.468-10.39-9.935-22.244-8.789-35.195 1.943-9.98 5.082-17.477 13.5-23.312 12.822-8.24 28.568-7.523 40.535 1.917m-36.738 13.383c-4.488 6.961-4.32 16.019-3.297 24.012 1.791 5.922 4.548 10.809 10 14 5.103 2.435 9.606 2.31 15 1 5.499-2.644 8.37-6.637 11-12 2.41-7.032 2.187-17.177-.562-24.062-2.745-5.186-6.864-9.08-12.438-10.938-8.772-.869-13.95 1.353-19.703 7.988M637 114c5.347 4.227 6.045 9.575 7 16h-14l-2-5c-3.247-2.933-5.924-3.919-10.312-4.25-3.999.271-6.303 1.154-9.688 3.25-1.455 2.91-1.45 4.78-1 8 4.585 3.79 9.102 5.03 14.813 6.375 8.465 2.182 14.44 4.969 20.75 11.125 2.588 6.303 2.73 13.502.625 20.012-3.237 5.9-8.73 8.953-14.958 11.097-9.654 1.691-20.713 1.607-29.23-3.609-4.333-3.39-7.303-7.758-9-13v-6h13l1.313 2.813c2.153 4.067 3.32 5.732 7.687 7.187 5.32.51 9.702.582 14.625-1.625C629 164 629 164 630.125 161c-.125-3-.125-3-1.656-5.031-3.12-2.487-6.315-3.432-10.094-4.469q-2.155-.635-4.309-1.277l-2.108-.625c-7.452-2.277-14.132-4.602-18.77-11.16-2.037-5.897-2.021-11.73-.188-17.688 5.087-6.994 10.306-10.653 18.852-12.375 9.351-1.114 17.289.318 25.148 5.625m-190-5h13l1 24 5-5c4.379-2.554 9.07-2.748 14-2 5.977 1.99 10.533 4.693 14.063 9.96 2.64 5.744 3.298 11.202 3.25 17.415l-.015 2.267c-.186 8.749-2.027 15.087-8.298 21.358-5.873 4.154-11.938 4.814-19 4-3.542-1.366-6.306-3.306-9-6l-1 5h-13zm17 31c-4.12 5.542-4.595 11.285-4 18 .962 4.638 2.24 7.324 5.813 10.5 3.614 1.701 5.265 2.3 9.187 1.5 4.152-2.464 6.57-4.97 8.438-9.437 1.265-8.013.583-14.354-4.188-21-5.298-3.68-10.09-3.081-15.25.437m276.75-12.875c5.265 3.037 8.463 6.992 10.25 12.875.264 3.082.233 6.147.195 9.238l-.008 2.67c-.011 2.801-.037 5.603-.062 8.405q-.016 2.856-.027 5.712-.035 6.988-.098 13.975h-13l-.044-3.026c-.058-3.724-.136-7.447-.218-11.17a749 749 0 0 1-.084-4.825 732 732 0 0 0-.142-6.956l-.02-2.16c-.135-4.648-1.034-7.912-3.492-11.863-3.222-1.61-6.516-1.6-10-1-3.522 2.697-5.262 4.675-6 9-.15 2.47-.256 4.919-.316 7.39l-.063 2.136q-.098 3.362-.183 6.724l-.131 4.57A4978 4978 0 0 0 717 180h-13v-53h13l1 5 2.188-1.875c6.5-4.911 12.872-5.307 20.562-3M535 114h14v13h10v10h-10q.177 6.381.372 12.762.066 2.173.125 4.345.088 3.117.187 6.233l.11 3.793C550 167 550 167 551 168q3.493.553 7 1l2 11c-7.264 1.816-13.333 1.791-20-2-4.695-4.943-5.146-8.943-5.098-15.512l.005-2.206c.005-2.324.018-4.646.03-6.97q.009-2.364.014-4.728.017-5.792.049-11.584h-7v-10h7zm-96 12v13l-4.187-.187c-4.109 0-6.548.516-9.813 3.187-2.471 3.707-2.348 6.652-2.414 10.95l-.059 2.34c-.06 2.466-.106 4.932-.152 7.398q-.057 2.508-.117 5.017-.142 6.147-.258 12.295h-14v-53h13l1 5 2.875-2.437c4.765-4.04 7.947-3.651 14.125-3.563m215-17h13v71h-13zm25 18h13v53h-13zm-172 0h13v53h-13zM293.5 38l5.7 15.3L314 59l-14.8 5.7-5.7 15.3-5.7-15.3L273 59l14.8-5.7zM43 141l5.2 13.8L62 160l-13.8 5.2L43 180l-5.2-14.8L24 160l13.8-5.2zm474-35c2.438 1.563 2.438 1.563 4 4 .737 6 .737 6-1.246 8.691-2.218 1.655-3.508 1.711-6.254 1.684l-2.344.023c-2.674-.494-3.555-1.225-5.156-3.398-.496-3.895-.58-6.095 1.563-9.437 3.38-2.167 5.497-2.126 9.437-1.563m172 0c2.375 1 2.375 1 4 3 .66 3.558.63 6.74-1 10-3.266 1.633-6.483 1.622-10 1-2.562-1.562-2.562-1.562-4-4 0-3.788.163-6.04 2.688-8.937 3.018-1.387 5.022-1.474 8.312-1.063"/></svg>