<svg xmlns="http://www.w3.org/2000/svg" viewBox="0 0 49 49" fill="none">
  <path
    fill-rule="evenodd"
    clip-rule="evenodd"
    d="M48.8313 24.4157C48.8313 37.9 37.9 48.8313 24.4157 48.8313C10.9313 48.8313 0 37.9 0 24.4157C0 10.9313 10.9313 0 24.4157 0C37.9 0 48.8313 10.9313 48.8313 24.4157ZM11.101 27.9445H17.5839C17.7768 27.9445 17.9182 28.1254 17.8723 28.312L14.522 41.9049C14.4507 42.194 14.8016 42.3965 15.0162 42.1902L37.6042 20.4498C37.7971 20.2645 37.666 19.9391 37.3985 19.9391H29.4695C29.223 19.9391 29.0842 19.6563 29.2345 19.4608L36.6592 9.83083C36.8101 9.63533 36.6706 9.35258 36.4242 9.35258H21.2277L10.8431 27.5C10.7298 27.6981 10.8731 27.9445 11.101 27.9445Z"
    fill="currentColor"
  />
</svg>
