<svg xmlns="http://www.w3.org/2000/svg" viewBox="0 0 152 152" fill="none">
  <path
    d="M33.3002 76.3621C33.3002 87.8271 39.1164 100.1951 51.9154 100.1951C61.4071 100.1951 71.0042 92.7849 71.0042 76.1939C71.0042 61.648 63.4599 51.8828 52.2312 51.8828C43.0815 51.8828 33.3002 58.3103 33.3002 76.3621ZM56.7402 30.6438C79.6889 30.6438 95.1197 48.8196 95.1197 75.8752C95.1197 102.5058 78.8643 121.0977 55.6261 121.0977C44.5465 121.0977 37.4496 116.3524 33.7388 112.9173C33.7652 113.7318 33.7827 114.6437 33.7827 115.6176V151.7301H10.0094V55.5126C10.0094 54.1138 9.562 53.6712 8.1759 53.6712H0V32.6003H19.9485C29.1333 32.6003 31.4843 37.2749 31.9317 40.8782C35.66 36.6994 43.3885 30.6438 56.7402 30.6438Z"
    fill="currentColor"
    transform="translate(28 -24)"
  />
</svg>
